<svg width="26" height="26" viewBox="0 0 26 26" fill="none" xmlns="http://www.w3.org/2000/svg"> <path d="M5.07977 22.8631L5.07012 22.8589L5.0604 22.8549C4.74799 22.7269 4.47795 22.5046 4.28767 22.2145C4.09725 21.9242 3.99634 21.5804 4.0001 21.2281L4.00016 21.2281V21.2174V6.62485C4.00144 5.6584 4.37954 4.73528 5.04623 4.05703C5.71234 3.37936 6.61173 3.00129 7.5462 3H18.4538C19.3883 3.00129 20.2876 3.37936 20.9538 4.05703C21.6206 4.73541 21.9987 5.65876 21.9998 6.62542V21.2174H21.9998L21.9999 21.2286C22.0038 21.5806 21.9033 21.9243 21.7133 22.2146C21.5234 22.5047 21.2539 22.727 20.9419 22.8555L20.9418 22.8554L20.9304 22.8603C20.717 22.9513 20.4887 22.9984 20.2583 22.9994C20.0385 22.9986 19.8205 22.9538 19.6168 22.8668C19.4122 22.7795 19.2256 22.6513 19.0681 22.4888L19.0682 22.4887L19.0612 22.4817L13.7112 17.0685L13 16.3489L12.2887 17.0685L6.93883 22.4817L6.93879 22.4816L6.93144 22.4892C6.69254 22.7361 6.38822 22.9019 6.05919 22.9679C5.73029 23.0339 5.38924 22.9977 5.07977 22.8631Z" stroke="#5C5C5C" stroke-width="2"/> </svg>