<svg width="24" height="24" viewBox="0 0 24 24" fill="none" xmlns="http://www.w3.org/2000/svg">
<g clipPath="url(#clip0_8769_3276)">
<g clipPath="url(#clip1_8769_3276)">
<path d="M23.786 19.492L16.713 1.83599C16.089 0.306985 14.337 -0.433015 12.802 0.190985L11.877 0.568985C11.628 0.670985 11.405 0.812985 11.197 0.970985C10.649 0.376985 9.871 -0.00101496 9.001 -0.00101496H3C1.346 -1.49552e-05 0 1.34598 0 2.99998V21C0 22.654 1.346 24 3 24H9C10.654 24 12 22.654 12 21V8.89499L17.304 22.137C17.929 23.68 19.721 24.397 21.213 23.778L22.139 23.4C23.644 22.826 24.425 20.966 23.786 19.493V19.492ZM13.574 7.44599L16.352 6.31399L20.523 16.726L17.745 17.858L13.574 7.44599ZM12.632 2.42098L13.557 2.04298C14.053 1.83698 14.654 2.07398 14.859 2.58598L15.609 4.45698L12.832 5.58899L12.085 3.72299C11.877 3.21299 12.123 2.62799 12.634 2.41999L12.632 2.42098ZM2 6.99999H5V17H2V6.99999ZM7 6.99999H10V17H7V6.99999ZM10 2.99998V4.99999H7V1.99998H9C9.551 1.99998 10 2.44798 10 2.99998ZM3 1.99998H5V4.99999H2V2.99998C2 2.44798 2.449 1.99998 3 1.99998ZM2 21V19H5V22H3C2.449 22 2 21.552 2 21ZM9 22H7V19H10V21C10 21.552 9.551 22 9 22ZM21.929 21.009C21.825 21.256 21.632 21.447 21.385 21.548L20.459 21.926C19.948 22.132 19.364 21.889 19.159 21.386L18.49 19.715L21.268 18.583L21.933 20.244C22.035 20.491 22.034 20.764 21.93 21.01L21.929 21.009Z" fill="#404040" fill-opacity="0.85"/>
</g>
</g>
<defs>
<clipPath id="clip0_8769_3276">
<rect width="24" height="24" fill="white"/>
</clipPath>
<clipPath id="clip1_8769_3276">
<rect width="24" height="24" fill="white"/>
</clipPath>
</defs>
</svg>
