<svg width="20" height="20" viewBox="0 0 20 20" fill="none" xmlns="http://www.w3.org/2000/svg">
<g clipPath="url(#clip0_119_2975)">
<path d="M14.9782 5.95501C14.7015 5.90001 14.4757 5.72751 14.3599 5.48084C13.0665 2.75501 10.074 1.23084 7.08069 1.78251C4.35402 2.28251 2.21652 4.45918 1.76069 7.20001C1.62569 8.00918 1.63569 8.81918 1.78819 9.60834C1.83819 9.86584 1.72736 10.1525 1.49986 10.3592C0.54569 11.2267 -0.000976562 12.4625 -0.000976562 13.7508C-0.000976562 16.2775 2.05486 18.3342 4.58236 18.3342H13.749C17.1957 18.3342 19.999 15.5308 19.999 12.0842C19.999 9.11334 17.8874 6.53584 14.9774 5.95584L14.9782 5.95501ZM12.6007 12.2567L10.3449 14.5125C10.0224 14.835 9.59819 14.9975 9.17402 14.9992L9.16652 15.0008L9.15902 14.9992C8.73486 14.9975 8.31069 14.835 7.98819 14.5125L5.73236 12.2567C5.40652 11.9308 5.40652 11.4042 5.73236 11.0783C6.05819 10.7525 6.58486 10.7525 6.91069 11.0783L8.33319 12.5008V8.33418C8.33319 7.87334 8.70652 7.50084 9.16652 7.50084C9.62652 7.50084 9.99986 7.87334 9.99986 8.33418V12.5008L11.4224 11.0783C11.7482 10.7525 12.2749 10.7525 12.6007 11.0783C12.9265 11.4042 12.9265 11.9308 12.6007 12.2567V12.2567Z" fill="#2b9e76"/>
</g>
<defs>
<clipPath id="clip0_119_2975">
<rect width="20" height="20" fill="white"/>
</clipPath>
</defs>
</svg>
