<svg width="1374" height="461" viewBox="0 0 1374 461" fill="none" xmlns="http://www.w3.org/2000/svg">
<path fill-rule="evenodd" clip-rule="evenodd" d="M1090.96 2.76088C1089.19 4.27976 1085.91 8.37362 1083.68 11.8583C1081.45 15.3438 1079.5 18.1949 1079.36 18.1949C1079.22 18.1949 1076.65 14.4634 1073.66 9.90278C1070.67 5.3414 1067.96 1.60353 1067.64 1.59641C1066.25 1.56239 1066.16 6.10953 1067.45 12.2286C1068.21 15.8731 1068.61 19.4345 1068.34 20.1426C1068.07 20.8514 1066.58 21.962 1065.03 22.6115C1062.28 23.761 1062.12 23.7277 1059.17 21.3893C1053.2 16.6555 1044.47 19.342 1041.47 26.8319C1038.44 34.4327 1041.31 36.529 1047.05 30.8981C1050.79 27.2291 1052.25 27.2947 1057.29 31.3585L1060.58 34.0102L1067.28 30.058C1070.97 27.8841 1074.19 26.1057 1074.43 26.1057C1074.68 26.1057 1075.26 27.6183 1075.74 29.4678C1076.21 31.3174 1076.74 33.2619 1076.92 33.7895C1077.12 34.4168 1078.63 33.8109 1081.26 32.0389C1083.47 30.5477 1086.6 29.1206 1088.21 28.8666C1092.94 28.1214 1096.34 26.0591 1101.87 20.58C1105.29 17.1934 1107.24 14.5765 1107.56 12.9477C1108.07 10.3205 1107.1 5.77807 1105.25 2.17548C1104.21 0.151097 1103.79 0 1099.16 0C1094.62 0 1093.9 0.241285 1090.96 2.76088ZM850.821 1.57663C847.992 2.71895 843.411 7.84991 838.682 15.1714L834.195 22.1179L831.107 19.4717C829.356 17.971 827.011 14.7134 825.69 11.9454C822.536 5.33902 820.893 5.59138 820.959 12.6716C820.985 15.4918 821.29 18.9235 821.636 20.2976C822.161 22.3829 821.995 22.9398 820.635 23.6692C819.336 24.3646 818.476 24.2198 816.403 22.9541C814.68 21.9027 812.411 21.364 809.692 21.3624C805.978 21.3592 805.399 21.6053 803.659 23.9303C801.488 26.8296 798.393 32.739 798.393 33.9849C798.393 35.6652 803.185 34.833 805.039 32.8299C807.283 30.4061 809.951 30.3008 812.334 32.542L814.131 34.2317L820.819 31.3554C824.497 29.7732 828.01 28.479 828.625 28.479C830.834 28.479 832.441 34.4184 830.703 36.158C830.063 36.7988 830.249 37.26 831.394 37.8731C833.182 38.8311 834.445 37.76 836.639 33.4233C837.781 31.1663 838.326 30.8522 841.112 30.8522C846.908 30.8522 857.103 24.325 860.577 18.3887C864.329 11.9794 862.797 3.49659 857.558 1.6676C854.638 0.648689 853.167 0.628908 850.821 1.57663ZM1098.48 9.65121C1100.08 11.2524 1099.55 13.2087 1096.91 15.4332C1094.48 17.4758 1093.24 18.119 1089.36 19.3293C1087.68 19.8506 1087.63 19.7494 1088.41 17.6554C1089.34 15.1817 1095.32 8.70191 1096.67 8.70191C1097.15 8.70191 1097.96 9.12909 1098.48 9.65121ZM854.333 13.8859C854.683 17.4719 852.134 20.1513 846.59 22.0261C841.229 23.8385 840.924 23.5252 843.065 18.3958C845.185 13.3163 847.871 11.2302 852.086 11.3932C853.728 11.4565 854.14 11.9129 854.333 13.8859ZM597.437 15.5582C597.147 15.8478 596.91 17.2432 596.91 18.6593C596.91 20.6117 597.923 22.4406 601.107 26.2402C607.739 34.1518 610.963 38.9719 614.076 45.6265C616.678 51.1918 617.003 52.622 617.297 59.8162C617.793 71.915 618.6 71.3224 602.153 70.9348C590.445 70.6587 588.024 70.3818 585.011 68.9737C580.066 66.663 579.656 66.2295 573.65 56.958C567.205 47.0093 567.85 47.7648 566.744 48.8723C566.063 49.5542 566.264 52.4385 567.555 60.4862L569.273 71.1927L567.487 73.9465C565.391 77.1773 564.207 77.0633 559.379 73.1665C552.236 67.4011 549.336 67.2832 544.982 72.5819C537.995 81.0852 536.911 84.1 540.123 86.1078C541.666 87.0729 542.146 86.8221 545.943 83.0677L550.082 78.9754L554.399 81.4151C557.865 83.373 559.633 83.8548 563.359 83.8548C567.475 83.8548 568.5 83.5059 572.382 80.7814L576.762 77.7073L585.058 79.6391C592.66 81.4095 594.378 81.5298 605.576 81.0717C617.126 80.5995 618.425 80.3772 629.279 77.0174C635.595 75.0619 643.251 72.0938 646.293 70.4214C649.335 68.7491 658.547 63.6118 666.765 59.0053C674.983 54.398 682.361 50.6293 683.16 50.6293C686.13 50.6293 684.463 53.815 677.096 62.2226C667.033 73.7068 662.213 80.8147 660.284 87.0191C658.048 94.2077 655.841 99.0539 654.1 100.596C653.283 101.32 647.992 103.58 642.343 105.619C586.48 125.778 552.728 143.822 546.4 156.91C544.424 160.998 544.227 167.384 545.999 169.917C548.616 173.658 559.905 177.203 569.199 177.203C573.584 177.203 574.005 177.049 574.447 175.287C575.732 170.162 573.38 168.734 560.762 166.974L551.873 165.735V163.327C551.873 157.577 564.976 148.936 592.169 136.752C618.918 124.768 669.599 105.708 698.047 96.9345C731.5 86.6172 749.153 78.4335 746.661 74.3966C745.222 72.0653 735.035 74.8404 692.658 89.1099C676.44 94.5708 662.987 98.8545 662.762 98.629C662.119 97.9859 664.066 89.3552 665.705 85.5825C666.521 83.7053 668.531 80.6572 670.173 78.81C671.814 76.9621 676.241 71.9988 680.01 67.7792C692.929 53.3182 695.605 47.4404 691.594 42.3348C690.025 40.3381 689.557 40.1949 686 40.6166C683.566 40.9053 679.712 42.3886 675.663 44.5957C654.635 56.0577 633.037 65.9613 626.94 66.9375L623.775 67.4446L623.772 62.399C623.767 52.376 621.663 43.8347 616.967 34.776C611.942 25.0837 607.833 19.3594 604.083 16.8295C601.48 15.0725 598.492 14.5013 597.437 15.5582ZM503.28 20.224C500.324 21.7556 495.761 26.1366 492.003 31.05C490.422 33.1171 488.534 34.8076 487.809 34.8076C486.986 34.8076 485.185 32.4961 483.032 28.6807C481.124 25.2973 478.957 22.4375 478.194 22.2943C476.941 22.0586 476.811 22.9026 476.811 31.2747C476.811 39.3754 476.657 40.4552 475.561 40.0343C474.874 39.7701 473.613 39.5541 472.76 39.5541C471.907 39.5541 470.295 38.6397 469.178 37.5219C467.48 35.8218 466.678 35.5702 464.261 35.9784C460.528 36.6105 455.639 39.3991 453.719 41.993C452.707 43.3577 452.29 45.0023 452.459 46.9492L452.712 49.8627L455.873 48.1524C463.253 44.159 463.7 44.1005 466.963 46.6968C470.568 49.5653 472.845 49.6523 476.641 47.0694C478.24 45.9817 480.309 45.0917 481.238 45.0917C482.822 45.0917 482.885 45.3227 482.236 48.8003C481.725 51.5422 481.802 52.6735 482.535 53.1394C484.474 54.3711 485.438 53.7446 487.629 49.8319C489.245 46.9484 490.17 46.022 491.033 46.4271C493.061 47.3787 500.471 46.7688 503.318 45.4161C507.242 43.5523 511.698 38.7836 514.266 33.7017C516.135 30.0034 516.412 28.706 515.968 25.7387C515.059 19.6703 509.235 17.1388 503.28 20.224ZM958.158 24.2775C957.331 25.9356 955.456 30.7312 953.988 34.935C951.434 42.2549 951.362 42.7723 952.275 47.1968C955.06 60.6927 968.437 56.6574 976.653 39.8421L978.839 35.3701L976.517 33.4763C975.24 32.4344 972.062 30.1434 969.455 28.3848C966.848 26.6263 964.522 24.4152 964.288 23.4714C964.008 22.3433 963.142 21.6701 961.761 21.5087C960.012 21.3031 959.409 21.7674 958.158 24.2775ZM509.051 31.4669C508.719 35.3195 505.974 37.1943 499.846 37.7505C496.75 38.0313 494.984 37.8952 494.984 37.3763C494.984 36.9277 496.596 34.7657 498.566 32.5713C502.112 28.623 503.941 27.7591 507.47 28.3666C509.024 28.634 509.254 29.0857 509.051 31.4669ZM964.319 37.1809C965.901 38.7646 966.489 43.0515 965.232 43.8292C964.865 44.057 963.087 44.4794 961.281 44.7682L957.998 45.2942L958.009 42.2264C958.027 37.2624 958.741 35.5987 960.856 35.5987C961.891 35.5987 963.45 36.3107 964.319 37.1809ZM890.571 38.5653C890.374 38.8912 890.725 40.441 891.353 42.0081C892.222 44.1788 894.133 45.9651 899.369 49.5012C903.151 52.054 910.019 57.8914 914.631 62.4726C925.146 72.9165 928.527 79.045 929.261 88.9968L929.729 95.3255L925.451 98.9937C922.676 101.374 918.546 103.746 913.693 105.746C903.658 109.884 896.055 114.23 892.33 117.959C889.579 120.714 889.257 121.45 889.257 124.991C889.257 127.167 889.423 128.947 889.625 128.947C889.828 128.947 898.559 124.322 909.029 118.669C947.053 98.1386 970.287 86.9993 992.369 78.7127C1024.78 66.5483 1043.27 58.5037 1046.16 55.303C1047.29 54.0594 1047.37 53.4321 1046.63 51.8128C1046.14 50.7266 1045.38 49.8382 1044.95 49.8382C1044.52 49.8382 1036.6 52.2922 1027.36 55.2912C1013.23 59.8707 1004.67 63.4164 973.873 77.4415C953.705 86.6252 936.798 94.1389 936.302 94.1389C934.35 94.1389 933.504 92.0615 933.504 87.2659C933.504 80.9381 929.808 69.128 926.123 63.6822C919.746 54.2572 911.184 47.0125 899.064 40.7851C893.691 38.025 891.281 37.3945 890.571 38.5653ZM1072.74 44.0404C1069.33 45.4137 1064.78 65.8315 1067.4 68.0086C1069.6 69.836 1071.86 82.3288 1073.77 103.228C1074.44 110.621 1077.13 129.666 1079.74 145.551C1096.36 246.618 1104.17 302.725 1104.17 321.012V329.186L1107.13 328.94C1109.98 328.705 1110.14 328.534 1111.08 324.74C1112.54 318.85 1114.61 293.81 1114.64 281.625C1114.65 275.741 1114.07 266.684 1113.33 261.453C1109.5 234.069 1105.86 210.07 1103.33 195.397C1100.9 181.274 1097.19 160.084 1094.27 143.582C1088.12 108.872 1087.51 104.804 1088 101.869C1088.28 100.228 1088.87 98.8854 1089.3 98.8854C1089.74 98.8854 1092.98 101.567 1096.5 104.845C1100.03 108.124 1103.46 110.691 1104.13 110.551C1105.95 110.174 1105.41 104.213 1102.94 97.1932C1098.87 85.6616 1080.56 50.0146 1076.28 45.2895C1074.6 43.4384 1074.41 43.3711 1072.74 44.0404ZM1251.88 50.8516C1249.97 53.5848 1246.75 60.8359 1244.06 68.4508C1241.28 76.3261 1241.52 78.7547 1245.45 82.5194C1247.16 84.157 1248.48 84.6324 1251.55 84.7187C1257.1 84.8745 1256.78 84.9757 1262.16 81.3795C1268.19 77.3505 1270.89 73.3484 1270.89 68.4445C1270.89 65.3482 1270.48 64.459 1267.83 61.8105C1266.15 60.1278 1263.04 58.1129 1260.92 57.3329C1256.39 55.6677 1255.09 54.3086 1255.09 51.2693C1255.09 48.6033 1253.59 48.4087 1251.88 50.8516ZM832.403 56.7602C827.182 63.0802 826.126 73.4046 829.908 81.1572C831.742 84.9164 832.529 88.3901 833.925 98.8854C838.571 133.802 845.747 178.506 852.149 212.406C854.368 224.153 857.55 243.733 859.222 255.915C865.669 302.897 868.537 316.604 871.065 312.51C874.223 307.393 875.148 281.46 873.076 256.119C871.68 239.045 868.658 215.114 866.699 205.621C866.333 203.848 866.872 203.171 870.854 200.411C873.371 198.665 881.652 194.042 889.257 190.135C911.436 178.744 926.933 168.284 928.376 163.732C929.072 161.537 936.3 161.55 940.615 163.754C944.821 165.902 947.041 165.744 949.554 163.117C951.328 161.264 951.677 160.189 951.677 156.581C951.677 152.942 951.226 151.579 948.813 147.922C940.555 135.411 929.205 128.486 923.507 132.483C921.039 134.213 918.74 139.757 917.3 147.456C916.144 153.63 916.136 154.714 917.212 158.39C918.307 162.131 918.294 162.621 917.067 164.273C914.484 167.747 883.722 186.583 872.777 191.393C866.116 194.319 864.14 194.458 863.626 192.035C862.18 185.234 849.889 110.35 850.171 110.067C850.878 109.36 857.372 112.815 862.237 116.486C864.977 118.553 867.554 120.245 867.966 120.245C870.523 120.245 866.317 108.048 858.555 92.9522C851.731 79.6802 836.487 53.7936 835.496 53.7936C835.143 53.7936 833.751 55.129 832.403 56.7602ZM235.027 58.4397C227.633 60.8714 222.983 65.3941 218.442 74.569C215.385 80.7466 215.184 81.4997 216.303 82.6191C217.848 84.1665 220.272 84.1823 225.228 82.6768C227.875 81.8723 232.679 81.4958 240.366 81.4902L251.625 81.4815V83.3564C251.625 84.8618 250.185 86.1379 244.316 89.833C238.126 93.7315 229.416 99.8552 226.809 102.144C226.39 102.512 226.535 103.308 227.159 104.061C229.086 106.386 237.516 104.246 250.601 98.1101C258.064 94.6103 260.699 92.4586 266.603 85.0414C272.388 77.7761 274.721 72.57 275.154 65.9692L275.522 60.3446L272.857 59.3415C269.739 58.1667 238.147 57.4136 235.027 58.4397ZM767.563 63.0889C764.459 73.0794 764.243 75.618 765.976 81.8106C768.723 91.6319 773.854 119.048 776.707 139.147C778.226 149.852 780.516 164.13 781.794 170.874C784.064 182.852 788.61 207.518 794.112 237.72C799.113 265.165 802.343 284.784 802.343 287.709C802.343 290.103 801.731 291.187 798.776 294.021C793.046 299.518 782.121 304.613 759.02 312.562C721.66 325.417 695.969 346.536 668.753 386.763C653.905 408.71 639.398 419.31 624.284 419.257C618.299 419.235 614.011 417.403 610.455 413.349C605.218 407.376 602.756 398.134 603.439 387.01C603.891 379.651 606.506 372.105 616.091 350.498C630.25 318.58 643.476 302.191 655.071 302.194C657.936 302.195 658.296 302.464 660.356 306.136C663.35 311.475 669.197 317.308 673.761 319.513C678.502 321.803 686.278 322.617 689.079 321.116C691.081 320.044 691.096 319.962 690.794 311.707C690.437 301.95 688.789 297.557 682.688 290.096C680.627 287.574 679.116 285.055 679.33 284.496C679.544 283.938 684.287 281.663 689.87 279.44C706.599 272.78 729.86 264.167 730.2 264.506C730.375 264.681 729.581 268.516 728.438 273.027C726.737 279.741 726.407 282.621 726.623 288.893C726.871 296.124 727.017 296.692 729.204 298.977C731.591 301.469 738.576 304.567 741.808 304.567C744.001 304.567 745.686 301.196 747.342 293.492C749.511 283.404 749.51 283.51 747.411 282.553C745.627 281.739 745.378 281.927 743.643 285.411C742.622 287.462 740.85 289.668 739.705 290.312C737.74 291.417 737.49 291.353 735.218 289.175C733.183 287.223 732.812 286.274 732.812 283.026C732.812 278.587 734.781 268.416 736.44 264.287C737.097 262.651 738.491 261.028 739.738 260.447C740.927 259.894 747.054 257.001 753.355 254.019C759.657 251.037 766.148 248.358 767.781 248.066C773.563 247.032 779.893 238.374 782.72 227.63C783.557 224.448 783.533 223.702 782.558 222.79C781.874 222.15 770.469 219.909 754.541 217.285C691.077 206.831 653.544 202.55 625.175 202.527C612.112 202.518 610.808 202.652 605.817 204.519C591.801 209.762 584.924 218.906 586.21 230.59C586.98 237.577 589.682 247.595 591.478 250.121C597.035 257.935 622.671 274.29 638.984 280.428C641.048 281.205 642.738 282.088 642.738 282.391C642.738 282.694 639.627 285.125 635.824 287.794C618.362 300.049 591.273 320.976 577.033 333.214C572.837 336.819 565.385 344.22 560.475 349.659C555.565 355.097 544.421 366.671 535.71 375.378C497.523 413.548 472.441 430.741 452.518 432.405C447.155 432.853 445.89 432.7 443.084 431.268C439.534 429.454 434.824 424.421 432.555 420.018C428.339 411.832 427.316 395.617 430.156 381.982C433.7 364.959 443.435 342.299 452.709 329.486C461.317 317.592 466.572 303.14 468.018 287.38C469.125 275.319 466.759 257.076 454.829 185.707C448.81 149.702 444.048 120.245 444.246 120.245C444.444 120.245 447.984 123.111 452.112 126.613C456.34 130.2 460.181 132.865 460.906 132.715C465.168 131.834 459.508 119.977 432.952 74.164C430.9 70.6239 429.366 68.8242 428.401 68.8242C426.585 68.8242 424.336 73.6925 422.604 81.3747L421.347 86.9448L424.173 100.628C427.416 116.335 430.802 135.131 436.477 168.944C438.673 182.023 442.799 204.273 445.647 218.386C455.413 266.786 458.918 292.489 456.397 297.206C453.733 302.189 430.673 312.824 410.44 318.401C397.403 321.994 381.645 330.439 363.823 343.385C352.202 351.825 346.522 356.723 341.865 362.316C309.012 401.777 293.761 417.629 283.071 423.427C279.619 425.3 278.154 425.603 272.544 425.603C266.945 425.603 265.432 425.292 261.802 423.392C248.776 416.579 247.28 393.603 258.084 366.303C266.827 344.21 284.985 315.47 299.967 300.008C305.082 294.73 309.236 292.435 327.082 285.027C353.668 273.992 377.361 268.009 398.984 266.873C406.712 266.466 410.483 266.697 419.378 268.123C428.315 269.555 430.512 269.689 431.511 268.859C435.271 265.734 443.985 249.99 443.246 247.658C442.903 246.574 441.635 246.095 438.032 245.687C426.096 244.335 395.046 238.435 374.095 233.538C367.688 232.04 358.249 228.85 347.23 224.456C328.267 216.896 310.888 210.945 297.847 207.549C289.49 205.373 288.472 205.288 271.378 205.337C260.434 205.367 251.893 205.761 249.158 206.36C241.141 208.117 235.968 214.45 233.014 226.121C232.316 228.878 231.949 231.337 232.197 231.586C232.608 231.997 241.839 232.835 268.613 234.891L278.094 235.62L280.6 233.212L283.107 230.805L292.057 234.013C304.68 238.536 325.467 245.654 336.168 249.118C343.682 251.549 345.298 252.348 345.501 253.735C345.647 254.738 345.17 255.711 344.315 256.154C343.528 256.562 332.751 260.308 320.366 264.48C277.961 278.762 266.493 281.239 259.179 277.694C252.548 274.48 247.421 268.934 242.534 259.689C237.262 249.716 231.002 240.438 227.629 237.595C225.484 235.788 224.705 235.601 220.835 235.965C214.8 236.532 208.222 239.182 203.092 243.109C189.224 253.728 186.365 256.189 182.863 260.523C172.585 273.24 168.447 287.336 168.334 310.002L168.266 323.744L162.736 326.893C159.694 328.625 152.272 332.683 146.243 335.91C133.724 342.612 127.617 346.575 118.093 354.176C107.934 362.287 91.6732 378.803 81.6536 391.19C65.1818 411.555 51.3609 424.501 40.1388 430.08C24.8996 437.656 13.4412 432.257 7.54049 414.72C6.24705 410.877 5.89544 407.859 5.89544 400.611C5.89544 392.212 6.13722 390.668 8.60716 383.277C11.2912 375.247 18.2609 360.47 24.13 350.365C25.8003 347.491 27.91 343.149 28.8194 340.716C30.752 335.543 36.0459 330.282 43.6991 325.926C48.0811 323.432 48.8704 322.569 51.6572 317.224C58.2113 304.651 61.4477 294.079 62.459 281.931C62.8399 277.362 62.7261 275.354 62.064 274.945C60.479 273.963 59.1089 275.889 56.8768 282.235C52.5548 294.523 47.3131 301.969 41.6763 303.832C36.0735 305.683 28.0127 300.29 24.3236 292.222C21.0098 284.975 19.9234 277.705 20.3761 265.804C20.8383 253.658 21.8015 249.362 28.6211 229.018C32.375 217.821 35.5236 210.802 47.434 187.082C55.3013 171.413 61.9297 157.591 62.1635 156.365C62.6945 153.583 61.2549 152.882 58.5945 154.627C55.2831 156.8 36.7017 187.805 29.4199 203.308C14.748 234.547 9.05911 257.347 9.05674 284.918C9.05516 302.334 13.2389 313.816 24.0794 326.146L27.2257 329.726L18.976 345.823C10.1795 362.988 4.76556 375.948 1.8413 386.84C0.37957 392.286 0.0303307 395.669 0.00267629 404.639C-0.0273485 414.795 0.162281 416.305 2.28772 422.834C4.93465 430.963 7.47175 433.922 17.5585 440.643C26.0848 446.326 29.7628 447.368 41.0561 447.3C51.9243 447.236 57.8629 445.921 65.8763 441.806C73.7895 437.744 74.2296 437.351 88.8596 421.252C96.3729 412.985 104.173 404.441 106.195 402.266C108.216 400.09 112.755 395.02 116.282 390.999C124.2 381.97 129.297 377.305 137.452 371.625C144.266 366.879 157.777 359.868 166.686 356.454C169.728 355.289 173.034 353.995 174.032 353.579C175.03 353.163 180.897 352.824 187.069 352.825C198.539 352.828 202.652 353.521 230.763 360.186C236.495 361.545 237.819 361.022 238.947 356.954C240.233 352.321 239.974 342.015 238.494 338.893C235.414 332.395 222.103 325.799 207.505 323.536C199.79 322.341 193.551 318.977 187.395 312.695C184.507 309.748 181.037 305.826 179.685 303.98C177.463 300.948 177.309 300.374 178.083 298.025C180.155 291.741 186.036 283.358 192.908 276.894C201.908 268.43 207.15 264.934 211.593 264.432C214.748 264.076 215.372 264.31 218.29 266.949C220.25 268.722 222.02 271.309 222.819 273.568C229.853 293.448 240.801 304.026 256.581 306.188C262.927 307.057 269.155 306.318 280.032 303.406C282.403 302.771 284.435 302.346 284.549 302.459C284.663 302.573 282.941 305.675 280.722 309.352C264.665 335.958 250.289 363.739 246.221 376.019C243.762 383.447 243.724 383.796 243.724 398.938V414.315L246.582 420.034C253.398 433.676 265.478 440.581 282.599 440.62C297.107 440.652 308.199 435.426 320.718 422.659C325.225 418.064 329.863 412.175 337.814 400.953C346.916 388.108 361.763 372.882 375.089 362.725C383.19 356.551 422.896 339.538 435.922 336.66C437.839 336.236 438.095 336.412 438.095 338.151C438.095 339.235 435.101 346.272 431.443 353.79C420 377.301 416.185 392.148 416.981 410.074C417.502 421.808 419.611 430.548 424.264 440.258C430.449 453.165 438.221 458.939 451.632 460.592C472.816 463.204 488.82 453.757 523.428 418.214C556.37 384.382 587.755 353.214 598.491 343.671C613.366 330.448 618.244 326.403 618.244 327.289C618.244 327.709 615.008 334.765 611.054 342.967C607.1 351.17 602.274 362.136 600.332 367.337L596.798 376.793L597.052 393.089L597.305 409.385L600.78 416.505C605.286 425.736 612.409 433.153 619.429 435.926C623.484 437.527 625.542 437.799 633.651 437.799C641.62 437.799 643.845 437.516 647.594 436.026C660.851 430.756 674.683 417.242 686.195 398.31C695.332 383.284 709.471 367.77 723.246 357.656C733.628 350.033 747.646 343.006 768.305 335.068C789.513 326.919 793.141 324.954 800.434 317.671C812.281 305.839 816.023 290.738 813.088 266.595C810.378 244.294 801.414 189.772 790.457 128.947C789.085 121.332 787.806 113.501 787.615 111.543L787.268 107.983L788.632 109.961C789.383 111.048 791.918 113.808 794.267 116.091C797.432 119.17 799.131 120.245 800.835 120.245C803.766 120.245 803.797 119.022 801.057 111.392C795.722 96.5335 773.517 57.7491 770.346 57.7491C769.649 57.7491 768.591 59.7774 767.563 63.0889ZM1258.79 66.2184C1266.6 68.7633 1266.94 69.6699 1261.79 74.2036C1257.91 77.625 1256.18 78.2191 1251.62 77.6867C1248.65 77.3394 1248.63 77.3133 1249.15 74.4646C1250.39 67.6977 1251.3 64.0777 1251.75 64.0777C1252.01 64.0777 1255.18 65.0412 1258.79 66.2184ZM490.78 66.2935C488.921 68.3511 486.17 79.3883 486.108 85.0414C486.077 87.9352 486.882 92.7212 488.171 97.3032C489.34 101.455 490.491 108.005 490.745 111.938C490.997 115.854 492.58 127.246 494.262 137.253C501.67 181.334 509.634 240.302 516.317 300.551C517.641 312.483 519.249 324.765 519.89 327.844C520.532 330.923 521.057 333.53 521.057 333.639C521.058 333.748 521.923 333.837 522.98 333.837C525.201 333.837 525.333 333.516 526.895 324.344C532.633 290.641 532.321 281.166 523.846 231.392C522.364 222.69 519.879 207.026 518.324 196.584C516.769 186.142 514.58 171.546 513.459 164.15C508.697 132.737 506.34 115.498 506.806 115.498C507.08 115.498 509.559 118.019 512.315 121.101C517.543 126.948 519.973 128.53 521.651 127.176C525.899 123.748 515.222 99.1432 498.732 74.3618C491.874 64.0548 492.359 64.5468 490.78 66.2935ZM388.317 76.6915C376.357 79.5466 325.219 97.0089 282.045 112.98C212.959 138.538 164.283 159.086 120.464 181.188C93.7299 194.673 83.8241 201.807 85.3127 206.503C86.0285 208.76 87.2414 208.469 94.1265 204.381C109.777 195.091 148.746 176.224 179.613 162.992C235.566 139.009 320.428 107.545 371.724 91.764C384.221 87.9201 394.626 83.1476 396.944 80.1968C398.518 78.193 399.234 74.274 397.996 74.4417C397.67 74.486 393.314 75.4986 388.317 76.6915ZM157.435 89.8282C151.264 93.1809 145.344 109.275 143.678 127.225C143.385 130.374 142.907 133.1 142.614 133.281C142.323 133.461 139.619 129.804 136.607 125.153C130.566 115.826 123.21 107.831 118.764 105.765C115.903 104.434 106.943 103.899 104.331 104.903C103.403 105.259 103.081 106.492 103.081 109.675C103.081 116.087 104.6 118.933 109.538 121.768C114.488 124.611 116.289 124.751 120.464 122.618C122.167 121.748 124.02 121.043 124.58 121.051C125.663 121.067 133.305 131.942 134.575 135.275C134.99 136.363 135.922 139.603 136.645 142.476C137.368 145.349 138.64 148.819 139.471 150.189C140.895 152.533 142.835 153.414 143.647 152.086C143.847 151.759 144.959 145.833 146.119 138.916C150.312 113.918 155.32 99.6559 159.895 99.6844C160.588 99.6883 162.717 100.934 164.625 102.453C168.627 105.638 168.529 105.615 170.902 103.951C172.384 102.911 172.608 102.244 172.165 100.193C171.437 96.8278 169.101 93.6761 165.279 90.9041C161.715 88.3197 160.514 88.1543 157.435 89.8282ZM1160.61 99.1844C1155.58 101.532 1151.34 105.227 1149.69 108.7C1148.4 111.425 1147.93 117.844 1149.01 117.904C1149.34 117.922 1151.14 119.331 1153.03 121.035L1156.45 124.134L1155.47 128.522C1154.93 130.937 1154.7 133.121 1154.95 133.377C1155.95 134.379 1160.59 132.612 1163.32 130.189C1164.9 128.788 1168.51 126.276 1171.33 124.607C1179.81 119.6 1186.21 114.804 1186.77 113.043C1187.83 109.699 1186.03 109.643 1176.15 112.706C1166.61 115.663 1163.32 116.12 1158.76 115.119C1156.56 114.633 1156.32 114.292 1156.32 111.576C1156.32 108.952 1156.64 108.439 1158.8 107.541C1161.22 106.539 1161.36 106.599 1164.14 109.831C1168.6 115.031 1172.12 113.88 1172.12 107.219C1172.12 101.878 1169.12 97.285 1165.66 97.3111C1165.08 97.3151 1162.82 98.1583 1160.61 99.1844ZM1279.8 103.609C1274.06 107.115 1269.68 116.84 1267.67 130.555C1267.13 134.239 1266.44 137.537 1266.14 137.884C1265.84 138.231 1264.79 136.274 1263.79 133.533C1259.35 121.245 1254.05 113.88 1247.4 110.748C1243.21 108.779 1238.17 108.457 1234.61 109.932C1232.46 110.823 1232.17 111.32 1232.17 114.09C1232.17 118.636 1234.2 122.239 1238.26 124.937C1243.6 128.476 1246.95 129.408 1248.68 127.837C1249.45 127.142 1251 126.573 1252.13 126.573C1253.97 126.573 1254.44 127.25 1256.71 133.1C1258.1 136.69 1260.41 143.07 1261.83 147.281C1264.71 155.785 1265.73 157.965 1266.34 156.933C1267.34 155.26 1272.47 134.963 1272.48 132.67C1272.5 125.719 1276.33 117.341 1281.95 111.938L1285.24 108.774L1288.33 112.225C1291.63 115.92 1293.32 116.118 1294.51 112.944C1295.47 110.399 1294.8 107.62 1292.53 104.63C1290.75 102.299 1290.16 102.05 1286.45 102.053C1283.77 102.054 1281.47 102.592 1279.8 103.609ZM1022.27 112.771C1022.01 113.448 1023.49 118.441 1025.56 123.869C1027.63 129.296 1029.19 133.871 1029.02 134.036C1028.58 134.468 1026.65 134.685 1024.22 134.577C1022.35 134.495 1021.57 133.462 1017.57 125.749C1015.07 120.945 1012.12 116.05 1011 114.872L1008.96 112.729L1008.68 115.498C1008.53 117.021 1009.22 122.408 1010.22 127.47C1011.95 136.283 1011.97 136.762 1010.65 138.774C1009.9 139.93 1008.1 141.438 1006.66 142.126C1004.4 143.204 1003.74 143.227 1001.84 142.292C998.044 140.422 996.537 136.547 997.115 130.133C997.576 125.012 998.546 119.446 999.562 116.091C1000.65 112.482 989.276 116.398 985.454 120.946C980.394 126.968 982.292 135.67 987.729 131.378L989.998 129.586L990.492 137.038C991.27 148.758 994.169 153.69 1000.93 154.788C1004.81 155.419 1009.61 152.931 1015.19 147.392L1019.7 142.911L1021.99 145.422C1023.93 147.549 1024.84 147.932 1027.93 147.932C1029.94 147.932 1032.3 147.548 1033.18 147.078C1037.29 144.877 1038.3 134.151 1035.13 126.437C1032.56 120.19 1026.28 111.543 1024.3 111.543C1023.44 111.543 1022.53 112.096 1022.27 112.771ZM279.173 133.486C274.695 138.22 272.525 141.607 270.172 147.537C268.285 152.291 267.928 154.473 267.648 162.963C267.35 171.95 267.471 173.09 268.969 175.466C270.477 177.858 277.28 181.921 279.811 181.941C281.541 181.955 285.268 178.142 287.452 174.124C289.288 170.748 289.59 169.349 289.391 165.159C289.188 160.875 288.948 160.194 287.641 160.194C286.464 160.194 285.702 161.469 284.218 165.93C282.426 171.311 282.165 171.665 279.992 171.665C277.012 171.665 274.546 167.875 274.542 163.287C274.538 159.1 276.832 150.19 280.337 140.779C281.869 136.664 283.236 132.808 283.374 132.21C283.885 129.995 281.906 130.597 279.173 133.486ZM733.292 136.527C732.378 138.909 732.84 141.249 735.98 150.151C737.714 155.069 739.133 159.57 739.133 160.152C739.133 161.827 737.363 162.078 734.269 160.842C731.649 159.796 731.209 159.128 728.929 152.749C727.563 148.926 725.372 144.102 724.06 142.03C721.745 138.376 721.628 138.305 720.132 139.661C718.128 141.476 718.157 141.919 721.003 153.387C723.229 162.356 723.322 163.254 722.194 164.977C720.929 166.91 716.458 168.274 714.214 167.412C712.211 166.642 710.738 161.921 710.188 154.503C709.381 143.627 706.139 140.384 701.8 146.111C699.183 149.563 698.831 153.902 701.107 154.625C702.259 154.991 702.708 156.188 703.128 160.018C703.837 166.485 706.211 171.273 710.111 174.102C712.801 176.053 713.76 176.324 716.524 175.913C722.071 175.09 726.331 172.832 727.454 170.121L728.466 167.675L731.388 169.67C737.939 174.145 744.776 170.883 746.597 162.412C747.67 157.428 741.077 139.101 737.245 136.414C735.138 134.937 733.887 134.972 733.292 136.527ZM656.996 141.27C652.669 145.184 648.905 155.017 645.893 170.281C645.4 172.783 644.693 174.829 644.323 174.829C643.952 174.829 642.015 172.368 640.018 169.361C632.224 157.623 625.026 151.624 618.736 151.624C612.81 151.624 609.842 154.722 610.864 159.84C611.626 163.656 615.354 165.953 621.821 166.591C624.852 166.891 628.262 167.606 629.4 168.18C632.336 169.663 638.724 177 639.233 179.474C639.468 180.618 640.619 184.579 641.792 188.278C643.486 193.623 644.258 195.05 645.558 195.236C647.036 195.447 647.29 194.835 648.179 188.907C650.656 172.409 655.9 154.633 659.645 150.039L661.474 147.796L666.254 150.211L671.034 152.627L672.268 150.742C673.388 149.031 673.385 148.504 672.233 145.032C670.341 139.332 669.273 138.439 664.346 138.439C660.614 138.439 659.763 138.768 656.996 141.27ZM380.097 141.519C378.559 143.221 378.442 142.838 384.321 155.329C388.288 163.757 388.296 165.714 384.366 165.773C380.556 165.829 379.203 164.443 375.114 156.298C369.66 145.433 368.061 143.186 365.788 143.186C363.307 143.186 363.308 143.599 365.798 155.843C368.091 167.115 368.244 170.641 366.543 173.071C365.082 175.161 362.668 175.303 358.308 173.556L355.132 172.284V161.976C355.132 153.086 354.941 151.522 353.749 150.616C351.864 149.183 347.958 149.251 345.815 150.754C343.468 152.399 340.909 157.55 340.909 160.626V163.098L344.564 161.053C346.574 159.928 348.352 159.008 348.515 159.008C348.678 159.008 348.81 163.074 348.81 168.044C348.81 176.561 348.926 177.218 350.812 179.463C354.206 183.502 358.931 184.218 366.656 181.864C369.452 181.012 372.87 177.659 373.682 174.97C373.987 173.959 374.651 173.291 375.156 173.485C379.515 175.16 387.658 176.499 389.58 175.858C396.411 173.579 397.233 161.34 391.244 151.097C389.258 147.699 382.889 140.022 382.057 140.022C381.723 140.022 380.841 140.696 380.097 141.519ZM929.396 146.509C929.917 147.031 930.344 149.205 930.344 151.34C930.344 154.723 930.166 155.15 928.961 154.661C928.2 154.352 926.601 153.745 925.406 153.312C923.802 152.73 923.233 151.991 923.233 150.488C923.233 146.721 927.108 144.218 929.396 146.509ZM940.585 148.707C942.095 149.516 943.984 153.789 943.185 154.589C942.931 154.844 941.753 155.052 940.568 155.052C938.221 155.052 937.455 153.867 937.455 150.241C937.455 147.806 938.211 147.436 940.585 148.707ZM1189.11 158.796C1186.04 159.566 1183.42 162.148 1180.89 166.886C1178.12 172.099 1174.93 183.765 1174.06 191.886C1173.76 194.7 1173.27 197.154 1172.97 197.34C1172.67 197.525 1170.49 194.793 1168.13 191.268C1157.36 175.219 1145.72 168.002 1136.37 171.584C1134.35 172.36 1134.2 172.73 1134.2 176.985C1134.2 184.847 1138.36 189.069 1146.09 189.069C1148.52 189.069 1149.72 188.613 1150.79 187.289L1152.24 185.509L1154.48 187.161C1159.36 190.766 1163.52 197.552 1170.55 213.395C1171.8 216.218 1172.86 217.548 1173.84 217.548C1174.63 217.548 1175.28 217.448 1175.28 217.326C1175.28 215.375 1178 195.744 1178.91 191.047C1181.53 177.675 1184.1 171.072 1187.59 168.787C1189.53 167.511 1189.71 167.551 1193.2 170.012C1197.21 172.841 1198.69 172.75 1199.47 169.62C1200.05 167.288 1198.54 164.034 1195.17 160.392C1193.19 158.254 1192.26 158.007 1189.11 158.796ZM1329.04 171.072C1327.49 173.503 1326.39 178.119 1325.78 184.718L1325.28 190.255L1330.12 200.071C1332.79 205.47 1336.35 213.835 1338.05 218.662C1339.74 223.487 1344.48 234.912 1348.57 244.049C1357.22 263.353 1361.59 274.707 1362.26 279.539L1362.73 282.971L1359.67 283.476C1350.99 284.912 1342.07 283.709 1335.13 280.168C1329.97 277.532 1322.78 271.285 1323.76 270.297C1324.81 269.252 1324.9 262.118 1323.88 261.486C1323.48 261.236 1321.93 261.612 1320.44 262.322C1318.2 263.393 1317.5 264.375 1316.36 268.07C1314.62 273.683 1310.89 281.168 1308.01 284.805C1306.8 286.342 1304.13 288.437 1302.08 289.459C1298.95 291.026 1297.53 291.259 1293.05 290.937C1287.4 290.532 1280.54 287.897 1275.88 284.34C1273.31 282.372 1273.3 282.367 1273.66 276.466C1273.86 273.218 1274.24 269.668 1274.51 268.577C1274.92 266.967 1274.72 266.595 1273.46 266.595C1270.67 266.595 1266.67 270.077 1263.82 274.999C1259.73 282.048 1253.17 290.61 1249.34 293.891C1247.5 295.465 1243.7 297.887 1240.88 299.275C1236.07 301.649 1235.25 301.798 1227.05 301.798C1215.99 301.798 1212.52 300.568 1206.94 294.657C1203.04 290.535 1199.39 283.861 1196.27 275.151C1194.39 269.91 1189.39 262.443 1186.04 259.883C1183.39 257.86 1182.84 257.746 1178.18 258.245C1168.66 259.266 1161.64 263.78 1152.48 274.77C1143.18 285.939 1137.44 296.128 1134.14 307.364C1131.96 314.789 1131.39 326.315 1132.83 333.665C1133.45 336.834 1133.75 339.553 1133.49 339.707C1133.23 339.861 1129 341.628 1124.1 343.631C1111.05 348.966 1091.14 360.187 1078.68 369.225C1076.61 370.727 1070.24 377.529 1064.52 384.341C1050.29 401.293 1031.29 420.164 1022.79 425.773C1013.97 431.599 1008.96 433.069 1001.84 431.93C995.847 430.971 993.475 429.908 989.883 426.57C986.622 423.539 985.198 420.658 984.146 414.959C983.063 409.09 983.056 402.945 984.126 396.34C985.595 387.278 995.838 365.517 1003.18 355.857C1005.06 353.392 1009.03 348.129 1012.01 344.161C1014.99 340.193 1019.04 335.713 1021.01 334.205L1024.6 331.464H1034.68C1042.28 331.464 1045.93 331.102 1049.47 330C1055.16 328.227 1062.19 323.688 1065.04 319.952C1078.49 302.288 1073.17 268.305 1050.1 224.717C1047.7 220.176 1045.89 216.307 1046.07 216.121C1046.26 215.935 1047.55 216.18 1048.94 216.665C1052.46 217.895 1054.93 217.766 1055.48 216.322C1056.09 214.732 1052.28 206.337 1048.26 200.431C1042.67 192.224 1030.07 181.466 1028.21 183.326C1026.89 184.648 1025.78 196.735 1026.32 203.891C1027 212.729 1028.28 217.215 1033.07 227.436C1049.68 262.886 1060.71 289.872 1060.71 295.052C1060.71 297.657 1059.4 298.592 1051.89 301.331C1033.49 308.041 1018.94 303.435 1010.43 288.206C1006.32 280.838 1004.35 274.583 1000.28 255.9C992.875 221.872 986.713 203.77 980.492 197.757C977.734 195.092 977.604 195.052 976.511 196.537C975.623 197.745 975.381 201.35 975.381 213.385V228.697L978.552 239.036C984.456 258.291 989.603 280.667 989.603 287.086C989.603 293.167 973.75 312.581 964.752 317.518C949.113 326.099 930.179 324.97 920.075 314.853C916.254 311.028 912.589 303.726 911.337 297.444C909.384 287.64 910.486 273.219 915.379 244.564C916.222 239.625 916.912 233.296 916.912 230.497C916.912 224.732 916.347 224.156 911.572 225.043C902.202 226.783 891.02 250.462 884.882 281.565C879.438 309.146 874.637 322.392 868.264 327.409C866.654 328.678 865.022 329.09 861.615 329.09C857.838 329.09 856.556 328.697 853.782 326.685C847.974 322.472 844.001 314.639 841.299 302.072C840.186 296.891 839.879 291.849 839.877 278.659C839.875 265.999 839.637 261.848 838.914 261.848C836.56 261.848 834.47 269.656 833.035 283.816C831.868 295.33 832.373 299.229 837.186 315.908C839.781 324.902 841.036 327.904 843.844 331.844C854.626 346.972 865.719 351.139 873.739 343.071C880.534 336.237 885.854 322.99 888.884 305.358C893.104 280.811 898.088 261.38 901.094 257.77L902.636 255.915L902.648 258.289C902.653 259.594 901.964 266.481 901.115 273.594C899.662 285.777 899.64 287.355 900.741 300.886L901.909 315.247L905.905 323.394C911.814 335.44 920.143 343.801 929.648 347.232C937.377 350.02 947.991 349.731 956.623 346.497C965.082 343.328 978.519 333.896 983.084 327.924C988.852 320.377 995.134 305.863 995.134 300.085C995.134 298.098 995.476 297.449 996.517 297.452C997.497 297.456 998.476 298.996 999.875 302.737C1002.5 309.761 1007.56 318.301 1012.03 323.288C1014.04 325.52 1015.68 327.745 1015.68 328.234C1015.68 328.723 1011.91 333.476 1007.31 338.797C987.244 362.017 973.892 391.823 975.69 409.394C976.302 415.368 978.482 422.377 982.209 430.349C984.32 434.863 985.867 436.962 988.676 439.123C997.999 446.294 1004.13 448.523 1014.76 448.61C1024.07 448.685 1029.32 447.139 1039.78 441.233C1045.43 438.041 1048.35 435.663 1054 429.649C1084.65 397.025 1100.05 383.563 1116.85 374.687C1126.07 369.814 1133.04 367.804 1142.49 367.291C1149.74 366.898 1151.32 367.097 1161.46 369.683C1167.54 371.235 1176.66 373.715 1181.73 375.196C1187.6 376.915 1191.37 377.646 1192.14 377.216C1194.05 376.142 1195.14 371.572 1195.26 364.108C1195.35 358.371 1195.07 356.606 1193.64 353.886C1190.83 348.531 1186.15 345.2 1175.35 340.889C1154.67 332.63 1143.68 325.221 1143.68 319.545C1143.68 314.226 1147.63 307.893 1156.79 298.516C1165.78 289.311 1170.16 286.372 1174.86 286.372C1178.64 286.372 1180.23 288.157 1184.35 297.059C1191.2 311.833 1198.74 321.088 1207.93 326C1212.11 328.235 1213.79 328.659 1219.53 328.928C1231.92 329.507 1242.75 325.632 1250.4 317.881C1252.83 315.413 1255.86 311.409 1257.13 308.983C1258.4 306.556 1259.81 304.57 1260.26 304.568C1261.6 304.566 1267.66 308.679 1274.05 313.934C1279.85 318.702 1280.07 318.804 1284.72 318.801C1301.66 318.788 1310.24 313.035 1313.67 299.392C1315.02 294.032 1315.54 293.629 1318.09 295.991C1323.49 300.986 1335.15 307.409 1343.89 310.204C1347.86 311.475 1349.34 311.599 1352.47 310.926C1361.81 308.921 1369.75 302.103 1372.49 293.743C1373.71 290.016 1374 286.809 1374 276.879C1374 264.817 1373.95 264.462 1370.95 255.124C1369.28 249.903 1364.93 239.468 1361.29 231.935C1353.67 216.14 1348.82 204.413 1349.48 203.344C1349.76 202.902 1351.25 203.065 1353.18 203.747C1354.96 204.375 1357.3 204.89 1358.38 204.89C1360.12 204.89 1360.29 204.645 1359.82 202.715C1358.92 199.017 1354.34 192.827 1344.84 182.513C1335.93 172.825 1332.19 169.292 1330.85 169.292C1330.48 169.292 1329.67 170.092 1329.04 171.072ZM197.588 173.445C194.309 178.587 186.834 199.976 186.834 204.215C186.834 207.764 188.528 211.581 190.426 212.31C193.349 213.433 201.921 212.796 204.993 211.226C210.247 208.543 215.279 200.291 215.279 194.36C215.279 189.617 212.894 186.295 206.385 181.968C202.003 179.055 201.057 178.048 201.057 176.297C201.057 171.7 199.511 170.429 197.588 173.445ZM1264.7 180.073C1255 181.781 1248.75 183.262 1247.57 184.135C1243.3 187.299 1236.07 201.562 1237.22 204.562C1237.6 205.533 1238.44 205.755 1240.67 205.473C1242.3 205.267 1248.65 204.466 1254.78 203.694C1265.37 202.36 1270.1 202.47 1270.1 204.049C1270.1 204.44 1267.16 207.064 1263.58 209.88C1254.57 216.96 1247.97 223.599 1247.97 225.593C1247.97 227.09 1248.28 227.193 1251.32 226.707C1258.96 225.485 1275.74 215.994 1281.19 209.82C1289.87 199.995 1294.59 191.3 1294.59 185.162C1294.59 180.391 1293.39 179.698 1281.56 177.659C1280.69 177.509 1273.1 178.596 1264.7 180.073ZM202.315 189.552C206.092 191.347 209.732 195.683 209.193 197.746C208.512 200.355 205.35 202.31 199.737 203.592C195.7 204.514 194.206 204.572 193.056 203.853C191.264 202.733 191.256 202.497 192.801 196.552C194.955 188.263 196.779 186.922 202.315 189.552ZM555.379 192.329C553.441 196.08 550.629 208.095 549.098 219.166C547.735 229.024 547.737 229.113 549.375 232.328C551.284 236.073 557.897 241.28 560.745 241.28C563.141 241.28 564.755 239.561 566.883 234.746C568.783 230.447 569.98 220.712 568.609 220.712C568.128 220.712 566.286 222.848 564.515 225.459C562.744 228.069 561.023 230.205 560.69 230.205C560.357 230.205 558.948 229.031 557.559 227.596C554.371 224.304 554.365 223.258 557.43 206.187C558.747 198.851 559.612 192.175 559.352 191.354C558.639 189.106 556.812 189.555 555.379 192.329ZM1214.37 211.723C1202.26 227.614 1200.26 250.565 1210.31 258.243C1213.67 260.808 1215.62 260.795 1218.72 258.186C1223.14 254.457 1228.51 241.554 1226.59 239.244C1225.05 237.388 1223.9 237.917 1220.4 242.071C1216.58 246.599 1214.2 247.148 1211.78 244.06C1210.93 242.978 1210 240.207 1209.71 237.902C1209.25 234.21 1209.66 232.256 1213.17 221.54C1215.36 214.846 1217.03 209.242 1216.87 209.086C1216.72 208.931 1215.59 210.117 1214.37 211.723ZM136.466 227.778C132.543 230.624 129.752 234.206 127.454 239.346C125.977 242.649 125.651 245.075 125.357 254.926C125.121 262.855 124.724 266.591 124.119 266.581C123.63 266.574 121.677 263.344 119.779 259.402C115.955 251.461 110.343 245.005 105.056 242.464C103.082 241.514 100.154 240.933 97.2523 240.915C93.1626 240.888 92.4262 241.128 91.0695 242.934C89.2736 245.322 89.6449 249.047 92.0777 253.053L93.5766 255.52H100.987C109.713 255.52 110.318 255.854 116.389 264.054C119.57 268.35 120.637 270.617 121.697 275.331C123.385 282.837 124.087 284.158 126.224 283.849C128.294 283.55 128.64 281.849 129.895 265.804C131.303 247.789 134.792 234.638 138.721 232.533C139.985 231.855 140.362 232.068 141.034 233.836C142.372 237.36 144.978 240.489 146.574 240.489C147.403 240.489 148.655 239.613 149.355 238.544C151.714 234.938 149.181 229.265 144.01 226.57C141.005 225.005 140.087 225.152 136.466 227.778ZM641.552 229.427C656.753 230.427 683.534 232.941 705.158 235.398C728.041 237.998 728.861 238.133 728.861 239.307C728.861 239.876 723.41 242.497 716.417 245.29C701.529 251.237 682.447 259.22 668.539 265.32L658.391 269.771L652.342 264.753C642.698 256.751 626.572 246.52 609.736 237.72C600.157 232.714 599.035 231.216 603.509 229.408C605.835 228.469 627.151 228.48 641.552 229.427ZM557.381 270.319C554.514 274.844 550.293 285.57 550.293 288.328C550.293 289.922 551.626 291.323 556.773 295.145C567.86 303.376 574.77 306.063 577.391 303.164C578.804 301.6 585.849 283.37 585.849 281.277C585.849 279.255 581.035 274.495 576.833 272.363C572.536 270.182 562.566 266.595 560.804 266.595C560.218 266.595 558.678 268.27 557.381 270.319ZM324.59 303.819C323.22 304.697 321.494 306.692 320.755 308.25C319.46 310.983 319.47 311.142 321.023 312.696C322.496 314.171 322.79 314.207 324.463 313.12C326.616 311.721 330.524 310.862 331.028 311.679C331.222 311.994 330.325 315.95 329.034 320.471C326.241 330.256 326.173 331.546 328.356 333.517C329.677 334.709 331.12 335.001 335.27 334.915C338.154 334.855 342.114 334.373 344.07 333.843C353.229 331.361 368.923 317.01 372.9 307.481C373.772 305.39 373.776 304.701 372.922 303.531C371.978 302.238 371.102 302.902 362.917 311.112C352.393 321.669 347.052 325.086 340.084 325.719C336.272 326.065 335.378 325.925 335.378 324.98C335.378 324.338 336.626 319.87 338.15 315.05C340.347 308.101 340.761 305.862 340.145 304.239C339.401 302.279 339.111 302.194 333.225 302.207C328.426 302.217 326.537 302.57 324.59 303.819ZM89.0974 322.188L84.9903 325.531L84.9492 335.143L84.9081 344.755L81.1929 349.778C79.1497 352.541 66.5274 365.829 53.1434 379.309C39.7595 392.788 28.8091 404.091 28.8091 404.426C28.8091 405.484 30.3191 405.097 34.5636 402.95C41.828 399.277 50.2887 392.85 65.0902 379.761C79.1449 367.331 90.33 352.007 91.7261 343.268C92.2034 340.276 92.2365 340.253 96.6565 339.719C102.227 339.049 105.873 337.587 106.935 335.599C108.126 333.372 106.736 329.206 103.74 326.019C101.452 323.584 94.7041 318.778 93.6422 318.826C93.4012 318.837 91.3563 320.35 89.0974 322.188ZM487.258 319.795C485.359 322.119 476.887 344.543 473.691 355.705C468.471 373.935 471.9 390.324 481.251 391.844C487.267 392.821 494.917 387.151 496.983 380.183C498.124 376.338 498.612 363.839 497.659 362.885C497.391 362.617 496.325 362.954 495.288 363.635C494.015 364.47 493.404 365.619 493.404 367.179C493.404 370.392 491.475 374.681 489.572 375.701C486.949 377.106 483.377 376.69 481.079 374.711C476.626 370.876 477.762 361.063 485.729 334.532C488.032 326.865 489.783 320.191 489.619 319.7C489.229 318.527 488.262 318.566 487.258 319.795ZM1342.49 336.243C1339.8 339.442 1333.31 351.429 1333.31 353.195C1333.31 356.673 1350.89 370.235 1356.6 371.16C1357.82 371.357 1358.91 370.105 1361.56 365.48C1365.62 358.387 1367.61 352.151 1366.88 348.807C1365.86 344.171 1359.57 339.471 1348.99 335.447C1346.67 334.562 1344.71 333.838 1344.64 333.838C1344.57 333.837 1343.6 334.92 1342.49 336.243ZM640.83 347.929C636.496 353.125 633.454 360.087 632.396 367.234C631.379 374.103 631.675 376.126 634.162 379.293C635.822 381.406 636.116 381.479 641.335 381.106C653.065 380.266 659.33 374.389 659.33 364.23C659.33 359.992 659.019 358.902 657.185 356.72C656.005 355.316 653.178 353.344 650.904 352.336C647.315 350.747 646.642 350.083 645.813 347.313C645.287 345.558 644.647 344.144 644.391 344.172C644.133 344.199 642.531 345.89 640.83 347.929ZM284.135 352.625C283.149 354.494 278.953 368.35 277.009 376.16C273.511 390.209 279.212 396.532 290.867 391.53C298.977 388.049 302.93 382.946 302.966 375.91C302.986 371.933 302.139 370.028 298.74 366.402C295.908 363.381 292.727 361.525 290.381 361.525C288.951 361.525 288.761 361.031 288.761 357.332C288.761 353.203 287.828 351.241 285.865 351.241C285.316 351.241 284.537 351.864 284.135 352.625ZM1296.32 358.582C1295.85 359.139 1295.37 361.542 1295.23 363.922L1294.99 368.249L1292.03 368.494C1289.28 368.723 1288.93 368.498 1286.9 365.132C1284 360.314 1282.31 360.38 1281.65 365.339C1281.06 369.776 1277.31 376.165 1274.84 376.951C1273.62 377.339 1271.83 376.686 1268.53 374.651C1263.7 371.664 1261.12 371.263 1256.92 372.842C1255.47 373.388 1246.12 381.847 1234.8 392.857C1209.77 417.193 1204.91 421.487 1196.22 426.968C1183.9 434.738 1167.91 445.464 1164.42 448.296C1160.29 451.65 1160.06 453.29 1163.72 453.29C1169.11 453.29 1201.29 434.197 1216.37 422.048C1220.06 419.073 1225.68 413.533 1228.86 409.737C1242.49 393.444 1254.54 381.302 1257.1 381.302C1257.69 381.302 1260.2 382.947 1262.67 384.959C1266.96 388.455 1267.32 388.596 1271 388.161C1275.37 387.642 1280.57 384.444 1283.68 380.369C1285.34 378.195 1286.28 377.705 1289.15 377.525C1298.34 376.949 1300.91 374.327 1300.91 365.532C1300.91 359.628 1300.18 357.569 1298.09 357.569C1297.57 357.569 1296.78 358.025 1296.32 358.582ZM647.294 361.107C651.736 363.177 652.659 364.409 651.934 367.3C651.034 370.892 641.085 374.426 638.672 372.011C637.823 371.16 641.188 359.149 642.272 359.16C642.746 359.163 645.005 360.04 647.294 361.107ZM1020.73 369.419C1014.49 376.174 1012.35 381.447 1012.43 389.834C1012.5 396.429 1013.21 398.207 1016.45 399.884C1019.74 401.585 1021.75 401.384 1027.17 398.817C1035.19 395.019 1037.75 390.472 1036.74 381.823C1036.22 377.343 1035.63 376.678 1029.19 373.193C1025.72 371.322 1025.16 370.687 1025.16 368.645C1025.16 365.487 1024.22 365.651 1020.73 369.419ZM289.459 371.346C291.48 372.832 293.809 374.794 294.633 375.705C296.109 377.338 296.104 377.392 294.339 379.274C292.47 381.266 285.653 383.377 283.616 382.595C282.914 382.325 282.44 381.123 282.44 379.616C282.44 377.143 284.764 368.645 285.442 368.645C285.63 368.645 287.437 369.861 289.459 371.346ZM745.849 377.996C736.137 381.629 732.513 384.602 731.553 389.725C731.272 391.224 731.197 392.606 731.386 392.796C731.576 392.985 735.439 392.078 739.973 390.781C744.507 389.483 748.484 388.422 748.811 388.422C750.265 388.422 749.086 390.831 744.936 396.336C738.824 404.444 736.589 409.579 736.143 416.533C735.917 420.074 736.132 422.842 736.722 423.945C738.205 426.718 744.211 428.928 748.549 428.297C753.169 427.625 754.804 426.777 766.788 418.834C785.616 406.355 794.279 397.284 795.051 389.239C795.261 387.049 795.121 385.263 794.74 385.27C794.359 385.277 790.314 388.494 785.751 392.417C770.014 405.951 757.441 413.429 748.947 414.306L744.442 414.772L745.012 411.735C745.358 409.887 746.905 407.131 748.965 404.691C753.592 399.215 756.4 394.545 758.178 389.371C759.804 384.64 760.165 378.533 758.866 377.729C756.765 376.43 749.647 376.575 745.849 377.996ZM863.183 387.305C817.458 411.141 795.631 424.174 781.405 436.136C773.795 442.534 772.529 444.834 774.886 447.976C775.976 449.429 773.621 450.767 800.368 433.499C806.886 429.291 818.087 422.718 825.257 418.892C849.166 406.136 865.418 396.043 872.862 389.328C875.176 387.241 875.825 386.069 875.825 383.979C875.825 382.507 875.558 381.309 875.232 381.318C874.907 381.326 869.484 384.021 863.183 387.305ZM1363.67 387.592C1361.47 388.377 1356.49 390.635 1352.61 392.609C1348.73 394.582 1338.44 399.033 1329.75 402.497C1303.69 412.889 1290.93 419.018 1286.1 423.453C1283.95 425.429 1283.63 430.132 1285.59 430.885C1286.35 431.177 1291.97 428.803 1299.61 424.959C1306.63 421.433 1318.24 416.234 1325.41 413.407C1344.37 405.931 1348.7 404.08 1356.62 400.079C1368.82 393.91 1371.51 391.334 1369.96 387.3C1369.37 385.76 1368.73 385.791 1363.67 387.592ZM1161.3 397.863C1137.33 409.909 1104.65 427.672 1096.94 432.843C1091.69 436.367 1088.77 440.537 1089.5 443.46C1090.56 447.698 1089.32 448.285 1131.43 423.615C1142.73 416.996 1155 410.26 1158.69 408.644C1170.95 403.288 1177.65 397.803 1177.65 393.141C1177.65 391.618 1177.25 390.795 1176.51 390.795C1175.87 390.795 1169.03 393.976 1161.3 397.863ZM366.343 394.948C365.303 398.843 367.092 402.843 372.557 408.843C378.133 414.965 383.895 424.287 385.571 429.9C387.027 434.774 387.078 445.301 385.671 450.731C384.723 454.387 384.747 454.973 385.886 456.005C386.591 456.643 387.554 456.917 388.027 456.612C389.474 455.681 391.337 451.405 392.749 445.778C393.928 441.078 393.974 439.507 393.121 432.977C390.563 413.407 383.39 399.472 373.218 394.311C368.196 391.763 367.167 391.859 366.343 394.948ZM183.531 400.71C180.39 404.829 177.509 408.199 177.127 408.199C176.746 408.199 171.805 405.504 166.147 402.212C160.489 398.919 155.385 396.407 154.805 396.63C153.018 397.317 144.77 414.797 144.661 418.132C144.572 420.849 144.936 421.423 148.438 424.095C150.57 425.72 155.648 428.719 159.723 430.757C170 435.899 171.449 435.44 174.896 425.951C176.996 420.173 177.366 419.65 179.529 419.43C181.342 419.245 183.306 420.215 188.111 423.666C191.537 426.129 195.733 428.855 197.435 429.725L200.53 431.306L201.951 429.443C205.167 425.229 211.339 411.705 211.334 408.884C211.327 405.167 207.433 401.513 199.345 397.628C188.566 392.453 190.047 392.164 183.531 400.71ZM570.588 422.636C556.38 431.207 545.296 439.474 537.154 447.571C531.082 453.609 530.54 454.406 530.54 457.28C530.54 460 530.773 460.409 532.317 460.406C534.904 460.4 539.504 457.372 546.712 450.931C550.202 447.812 558.925 441.412 566.095 436.709C579.399 427.982 584.011 424.064 584.292 421.252C584.66 417.568 584.247 416.11 582.837 416.11C582.05 416.11 576.538 419.046 570.588 422.636Z" fill="black" fill-opacity="0.6"/>
</svg>
