<svg width="24" height="24" viewBox="0 0 24 24" fill="none" xmlns="http://www.w3.org/2000/svg">
<path d="M17.715 15.1501L18.665 15.4661C18.7292 15.2739 18.7336 15.0668 18.6774 14.8721C18.6213 14.6774 18.5074 14.5043 18.3507 14.3759C18.194 14.2474 18.002 14.1695 17.8001 14.1526C17.5982 14.1357 17.3959 14.1805 17.22 14.2811L17.715 15.1501ZM9 6.03511L9.846 6.56911C9.95524 6.39634 10.0089 6.19426 9.9998 5.99006C9.99068 5.78586 9.9192 5.58936 9.795 5.42702C9.67079 5.26468 9.49983 5.1443 9.30512 5.0821C9.11041 5.0199 8.90132 5.01885 8.706 5.07911L9 6.03511ZM17.221 14.2811C16.3924 14.7535 15.4548 15.001 14.501 14.9991V16.9991C15.8019 17.0011 17.0808 16.6632 18.211 16.0191L17.221 14.2811V14.2811ZM14.501 14.9991C13.7787 14.9992 13.0635 14.8571 12.3962 14.5808C11.7288 14.3045 11.1224 13.8995 10.6116 13.3889C10.1008 12.8783 9.69557 12.272 9.41905 11.6048C9.14252 10.9375 9.00013 10.2224 9 9.50011H7C7 11.4892 7.79018 13.3969 9.1967 14.8034C10.6032 16.2099 12.5109 17.0001 14.5 17.0001V15.0001L14.501 14.9991ZM9 9.50011C9 8.42111 9.31 7.41811 9.845 6.57011L8.153 5.50011C7.39741 6.69725 6.99755 8.08446 7 9.50011H9ZM5 12.8681C5 10.0891 6.815 7.75011 9.292 6.99011L8.706 5.08011C5.397 6.09411 3 9.20111 3 12.8671H5V12.8681ZM11.042 19.0041C7.718 19.0031 5 16.2681 5 12.8671H3C3 17.3471 6.588 21.0031 11.042 21.0031V19.0031V19.0041ZM16.767 14.8341C15.957 17.2671 13.693 19.0041 11.042 19.0041V21.0041C14.594 21.0041 17.595 18.6771 18.664 15.4671L16.767 14.8351V14.8341Z" fill="#5C5C5C"/>
<path d="M17 3C17.2652 3 17.5196 3.10536 17.7071 3.29289C17.8946 3.48043 18 3.73478 18 4C18 4.53043 18.2107 5.03914 18.5858 5.41421C18.9609 5.78929 19.4696 6 20 6C20.2652 6 20.5196 6.10536 20.7071 6.29289C20.8946 6.48043 21 6.73478 21 7C21 7.26522 20.8946 7.51957 20.7071 7.70711C20.5196 7.89464 20.2652 8 20 8C19.4696 8 18.9609 8.21071 18.5858 8.58579C18.2107 8.96086 18 9.46957 18 10C18 10.2652 17.8946 10.5196 17.7071 10.7071C17.5196 10.8946 17.2652 11 17 11C16.7348 11 16.4804 10.8946 16.2929 10.7071C16.1054 10.5196 16 10.2652 16 10C16 9.46957 15.7893 8.96086 15.4142 8.58579C15.0391 8.21071 14.5304 8 14 8C13.7348 8 13.4804 7.89464 13.2929 7.70711C13.1054 7.51957 13 7.26522 13 7C13 6.73478 13.1054 6.48043 13.2929 6.29289C13.4804 6.10536 13.7348 6 14 6C14.5304 6 15.0391 5.78929 15.4142 5.41421C15.7893 5.03914 16 4.53043 16 4C16 3.73478 16.1054 3.48043 16.2929 3.29289C16.4804 3.10536 16.7348 3 17 3Z" fill="#5C5C5C"/>
</svg>
