<svg width="24" height="24" viewBox="0 0 24 24" fill="none" xmlns="http://www.w3.org/2000/svg">
<g clipPath="url(#clip0_8769_811)">
<g clipPath="url(#clip1_8769_811)">
<path d="M22.2 2.163C21.6378 1.69293 20.9791 1.35239 20.2705 1.16557C19.5619 0.978742 18.8209 0.950212 18.1 1.082L14.278 1.776C13.3956 1.93805 12.5933 2.39203 12 3.065C11.4052 2.39087 10.6006 1.93678 9.716 1.776L5.9 1.082C5.17916 0.950097 4.43813 0.978253 3.72938 1.16448C3.02062 1.3507 2.36147 1.69045 1.79857 2.15966C1.23567 2.62887 0.782786 3.21607 0.471982 3.87971C0.161178 4.54335 4.88125e-05 5.26719 0 6L0 16.793C5.74559e-05 17.9638 0.410977 19.0975 1.16113 19.9964C1.91129 20.8953 2.95311 21.5024 4.105 21.712L10.391 22.855C11.455 23.0483 12.545 23.0483 13.609 22.855L19.9 21.712C21.051 21.5014 22.0916 20.8938 22.8408 19.995C23.5899 19.0962 24.0002 17.9631 24 16.793V6C24.0005 5.26745 23.8394 4.5438 23.5283 3.8806C23.2171 3.21739 22.7636 2.63094 22.2 2.163ZM11 20.928C10.916 20.916 10.832 20.902 10.748 20.887L4.463 19.745C3.77176 19.6192 3.14659 19.2549 2.69649 18.7154C2.24638 18.1759 1.99989 17.4956 2 16.793V6C2 5.20435 2.31607 4.44129 2.87868 3.87868C3.44129 3.31607 4.20435 3 5 3C5.18109 3.00043 5.36179 3.01683 5.54 3.049L9.36 3.749C9.81961 3.83311 10.2353 4.07547 10.5348 4.43405C10.8344 4.79262 10.999 5.24476 11 5.712V20.928ZM22 16.793C22.0001 17.4956 21.7536 18.1759 21.3035 18.7154C20.8534 19.2549 20.2282 19.6192 19.537 19.745L13.252 20.887C13.168 20.902 13.084 20.916 13 20.928V5.712C12.9999 5.24361 13.1643 4.79006 13.4643 4.43041C13.7644 4.07076 14.1812 3.82784 14.642 3.744L18.463 3.044C18.8957 2.96527 19.3405 2.98265 19.7657 3.09491C20.191 3.20717 20.5863 3.41156 20.9238 3.69361C21.2613 3.97565 21.5326 4.32846 21.7186 4.72703C21.9046 5.12559 22.0007 5.56018 22 6V16.793Z" fill="#404040" fill-opacity="0.85"/>
</g>
</g>
<defs>
<clipPath id="clip0_8769_811">
<rect width="24" height="24" fill="white"/>
</clipPath>
<clipPath id="clip1_8769_811">
<rect width="24" height="24" fill="white"/>
</clipPath>
</defs>
</svg>
